<svg xmlns="http://www.w3.org/2000/svg" viewBox="0 0 400 300" fill="none">
  <defs>
    <linearGradient id="libGrad" x1="0%" y1="0%" x2="100%" y2="100%">
      <stop offset="0%" style="stop-color:#F59E0B;stop-opacity:1" />
      <stop offset="100%" style="stop-color:#EF4444;stop-opacity:1" />
    </linearGradient>
    <linearGradient id="libGrad2" x1="0%" y1="0%" x2="100%" y2="100%">
      <stop offset="0%" style="stop-color:#8B5CF6;stop-opacity:1" />
      <stop offset="100%" style="stop-color:#6366F1;stop-opacity:1" />
    </linearGradient>
  </defs>
  
  <!-- Background -->
  <rect width="400" height="300" fill="url(#libGrad)" opacity="0.1"/>
  
  <!-- Bookshelf -->
  <rect x="40" y="60" width="320" height="200" rx="8" fill="white" opacity="0.95"/>
  
  <!-- Shelf 1 -->
  <rect x="60" y="80" width="280" height="8" rx="4" fill="#D1D5DB"/>
  
  <!-- Books on Shelf 1 -->
  <rect x="70" y="40" width="25" height="48" rx="2" fill="url(#libGrad)"/>
  <rect x="105" y="45" width="25" height="43" rx="2" fill="url(#libGrad2)"/>
  <rect x="140" y="42" width="25" height="46" rx="2" fill="#3B82F6"/>
  <rect x="175" y="48" width="25" height="40" rx="2" fill="#10B981"/>
  <rect x="210" y="44" width="25" height="44" rx="2" fill="#F59E0B"/>
  <rect x="245" y="46" width="25" height="42" rx="2" fill="#EF4444"/>
  <rect x="280" y="43" width="25" height="45" rx="2" fill="#8B5CF6"/>
  <rect x="315" y="47" width="25" height="41" rx="2" fill="#6366F1"/>
  
  <!-- Shelf 2 -->
  <rect x="60" y="140" width="280" height="8" rx="4" fill="#D1D5DB"/>
  
  <!-- Books on Shelf 2 -->
  <rect x="70" y="100" width="25" height="48" rx="2" fill="#EC4899"/>
  <rect x="105" y="105" width="25" height="43" rx="2" fill="#14B8A6"/>
  <rect x="140" y="102" width="25" height="46" rx="2" fill="#F97316"/>
  <rect x="175" y="108" width="25" height="40" rx="2" fill="#A855F7"/>
  <rect x="210" y="104" width="25" height="44" rx="2" fill="#06B6D4"/>
  <rect x="245" y="106" width="25" height="42" rx="2" fill="#84CC16"/>
  <rect x="280" y="103" width="25" height="45" rx="2" fill="#EAB308"/>
  <rect x="315" y="107" width="25" height="41" rx="2" fill="#22C55E"/>
  
  <!-- Shelf 3 -->
  <rect x="60" y="200" width="280" height="8" rx="4" fill="#D1D5DB"/>
  
  <!-- Books on Shelf 3 -->
  <rect x="70" y="160" width="25" height="48" rx="2" fill="#6366F1"/>
  <rect x="105" y="165" width="25" height="43" rx="2" fill="#8B5CF6"/>
  <rect x="140" y="162" width="25" height="46" rx="2" fill="#A855F7"/>
  <rect x="175" y="168" width="25" height="40" rx="2" fill="#EC4899"/>
  <rect x="210" y="164" width="25" height="44" rx="2" fill="#F59E0B"/>
  <rect x="245" y="166" width="25" height="42" rx="2" fill="#EF4444"/>
  <rect x="280" y="163" width="25" height="45" rx="2" fill="#10B981"/>
  <rect x="315" y="167" width="25" height="41" rx="2" fill="#3B82F6"/>
  
  <!-- Library Card/Info Panel -->
  <rect x="40" y="230" width="320" height="50" rx="8" fill="url(#libGrad2)" opacity="0.9"/>
  <rect x="60" y="245" width="100" height="6" rx="3" fill="white" opacity="0.9"/>
  <rect x="180" y="245" width="80" height="6" rx="3" fill="white" opacity="0.9"/>
  <rect x="280" y="245" width="60" height="6" rx="3" fill="white" opacity="0.9"/>
</svg>
